<svg height="512pt" viewBox="0 0 512 512" width="512pt" xmlns="http://www.w3.org/2000/svg"><path d="m437.019531 74.980469c-48.351562-48.351563-112.640625-74.980469-181.019531-74.980469s-132.667969 26.628906-181.019531 74.980469c-48.351563 48.351562-74.980469 112.640625-74.980469 181.019531s26.628906 132.667969 74.980469 181.019531c48.351562 48.351563 112.640625 74.980469 181.019531 74.980469s132.667969-26.628906 181.019531-74.980469c48.351563-48.351562 74.980469-112.640625 74.980469-181.019531s-26.628906-132.667969-74.980469-181.019531zm-181.019531 407.019531c-124.617188 0-226-101.382812-226-226s101.382812-226 226-226 226 101.382812 226 226-101.382812 226-226 226zm0 0"/><path d="m296.851562 181.945312-58.304687 58.308594-13.246094-13.242187c-17.546875-17.546875-46.09375-17.546875-63.640625 0-8.5 8.496093-13.179687 19.796875-13.179687 31.816406 0 12.023437 4.679687 23.324219 13.179687 31.820313l45.066406 45.066406c8.5 8.5 19.796876 13.179687 31.820313 13.179687 12.019531 0 23.316406-4.679687 31.816406-13.179687l90.128907-90.128906c8.5-8.496094 13.179687-19.800782 13.179687-31.820313s-4.679687-23.320313-13.179687-31.820313c-17.546876-17.542968-46.09375-17.542968-63.640626 0zm42.425782 42.425782-90.125 90.128906c-2.835938 2.832031-6.601563 4.394531-10.605469 4.394531-4.007813 0-7.773437-1.558593-10.609375-4.394531l-45.0625-45.0625c-2.832031-2.835938-4.394531-6.601562-4.394531-10.609375 0-4.003906 1.5625-7.769531 4.394531-10.605469 2.925781-2.921875 6.765625-4.382812 10.605469-4.382812 3.84375 0 7.683593 1.460937 10.609375 4.382812l23.847656 23.851563c5.859375 5.859375 15.355469 5.859375 21.214844 0l68.914062-68.914063c5.847656-5.847656 15.363282-5.847656 21.210938 0 2.835937 2.832032 4.394531 6.601563 4.394531 10.605469 0 4.007813-1.5625 7.773437-4.394531 10.605469zm0 0"/></svg>