<svg width="512" height="512" viewBox="0 0 512 512" fill="none" xmlns="http://www.w3.org/2000/svg">
<g clip-path="url(#clip0_708_337)">
<path d="M448.8 0H63.2C54.916 0 48.2 6.716 48.2 15V497C48.2 502.198 50.8919 507.026 55.3139 509.76C59.7369 512.494 65.2589 512.741 69.9089 510.416L256 417.371L442.092 510.416C444.209 511.475 446.507 512 448.8 512C451.542 512 454.278 511.248 456.687 509.76C461.109 507.027 463.801 502.198 463.801 497V15C463.8 6.716 457.083 0 448.8 0ZM362.871 192.183L320.32 233.66L330.226 291.411C330.472 292.489 330.602 293.61 330.602 294.763C330.602 303.037 323.902 309.747 315.63 309.763C315.613 309.763 315.597 309.763 315.58 309.763C313.192 309.763 310.797 309.194 308.602 308.04L256 280.392L203.4 308.04C201.206 309.193 198.809 309.763 196.422 309.763C193.312 309.763 190.217 308.797 187.603 306.898C182.985 303.541 180.671 297.854 181.637 292.227L191.685 233.661L149.129 192.184C145.04 188.199 143.568 182.237 145.333 176.807C147.098 171.376 151.792 167.418 157.442 166.598L216.251 158.052L242.547 104.763C245.074 99.643 250.288 96.401 255.998 96.401C261.708 96.401 266.923 99.642 269.449 104.762L295.75 158.052L354.556 166.598C360.206 167.418 364.901 171.376 366.665 176.806C368.431 182.236 366.959 188.197 362.871 192.183Z" fill="black"/>
</g>
<defs>
<clipPath id="clip0_708_337">
<rect width="512" height="512" fill="white"/>
</clipPath>
</defs>
</svg>
