<svg width="512" height="512" viewBox="0 0 512 512" fill="none" xmlns="http://www.w3.org/2000/svg">
<g clip-path="url(#clip0_703_195)">
<path d="M448.799 0H63.2C54.916 0 48.2 6.716 48.2 15V497C48.2 502.199 50.892 507.027 55.314 509.76C59.737 512.493 65.259 512.741 69.908 510.417L256 417.371L442.092 510.416C444.209 511.475 446.507 511.999 448.8 511.999C451.543 511.999 454.278 511.248 456.687 509.759C461.109 507.026 463.801 502.198 463.801 496.999V15C463.799 6.716 457.084 0 448.799 0ZM433.799 472.729L262.707 387.184C260.596 386.128 258.297 385.601 255.999 385.601C253.701 385.601 251.402 386.129 249.291 387.184L78.2 472.729V30H433.8V472.729H433.799Z" fill="black"/>
<path d="M366.664 176.807C364.9 171.377 360.206 167.419 354.556 166.598L295.749 158.053L269.449 104.763C266.923 99.6419 261.709 96.3999 255.999 96.3999C250.29 96.3999 245.075 99.6419 242.548 104.762L216.252 158.051L157.443 166.596C151.792 167.417 147.098 171.375 145.334 176.805C143.57 182.235 145.042 188.196 149.13 192.181L191.685 233.661L181.637 292.226C180.672 297.853 182.985 303.541 187.604 306.897C190.217 308.796 193.313 309.762 196.423 309.762C198.81 309.762 201.206 309.193 203.401 308.039L256 280.391L308.603 308.04C310.797 309.194 313.193 309.763 315.581 309.763C315.598 309.763 315.615 309.763 315.631 309.763C323.902 309.747 330.602 303.037 330.602 294.763C330.602 293.611 330.472 292.489 330.226 291.411L320.32 233.661L362.87 192.183C366.958 188.198 368.43 182.237 366.664 176.807ZM293.733 217.683C290.198 221.129 288.585 226.094 289.419 230.96L295.66 267.346L262.979 250.168C260.794 249.02 258.397 248.445 256 248.445C253.602 248.445 251.206 249.019 249.02 250.168L216.345 267.344L222.588 230.961C223.423 226.094 221.809 221.129 218.273 217.683L191.836 191.915L228.371 186.606C233.257 185.896 237.48 182.827 239.665 178.399L256.001 145.295L272.339 178.4C274.524 182.827 278.748 185.896 283.633 186.606L320.167 191.915L293.733 217.683Z" fill="black"/>
</g>
<defs>
<clipPath id="clip0_703_195">
<rect width="512" height="512" fill="white"/>
</clipPath>
</defs>
</svg>
