<svg width="512" height="512" viewBox="0 0 512 512" fill="none" xmlns="http://www.w3.org/2000/svg">
<path d="M496.093 189.613C477.45 173.939 448.925 175.806 432.739 195.106L423.012 206.614L491.957 264.463L501.245 252.997C517.22 233.997 515.199 205.621 496.093 189.613Z" fill="black"/>
<path d="M301.375 350.534L296.244 356.606C291.791 361.938 288.583 368.31 286.972 375.063L273.027 433.422C271.709 438.944 273.628 444.745 277.978 448.393C282.212 451.951 288.184 452.984 293.579 450.678L348.642 426.801C355.014 424.032 360.727 419.77 365.18 414.482L370.329 408.39L301.375 350.534Z" fill="black"/>
<path d="M403.656 229.517L320.733 327.631L389.683 385.487L472.601 287.366L403.656 229.517Z" fill="black"/>
<path d="M376.02 66.5039L319.038 12.3629C313.651 7.25595 307.024 4.24795 300.039 2.29395V89.9999H389.091C387.23 81.0899 382.69 72.8359 376.02 66.5039Z" fill="black"/>
<path d="M257.792 368.091C260.473 356.87 265.819 346.25 273.231 337.373L390.038 199.159V120H285.038C276.747 120 270.038 113.291 270.038 105V0H45.0381C20.2241 0 0.0380859 20.186 0.0380859 45V467C0.0380859 491.814 20.2241 512 45.0381 512H345.038C369.852 512 390.038 491.814 390.038 467V431.541L388.09 433.846C380.722 442.621 371.215 449.696 360.624 454.311L305.517 478.203C289.985 484.91 272.006 482.534 258.701 471.391C245.561 460.361 239.863 443.149 243.847 426.45L257.792 368.091ZM75.0381 90H225.038C233.329 90 240.038 96.709 240.038 105C240.038 113.291 233.329 120 225.038 120H75.0381C66.7471 120 60.0381 113.291 60.0381 105C60.0381 96.709 66.7471 90 75.0381 90ZM75.0381 181H315.038C323.329 181 330.038 187.709 330.038 196C330.038 204.291 323.329 211 315.038 211H75.0381C66.7471 211 60.0381 204.291 60.0381 196C60.0381 187.709 66.7471 181 75.0381 181ZM195.038 391H75.0381C66.7471 391 60.0381 384.291 60.0381 376C60.0381 367.709 66.7471 361 75.0381 361H195.038C203.329 361 210.038 367.709 210.038 376C210.038 384.291 203.329 391 195.038 391ZM75.0381 301C66.7471 301 60.0381 294.291 60.0381 286C60.0381 277.709 66.7471 271 75.0381 271H255.038C263.329 271 270.038 277.709 270.038 286C270.038 294.291 263.329 301 255.038 301H75.0381Z" fill="black"/>
</svg>
