<?xml version="1.0" encoding="iso-8859-1"?>
<!-- Generator: Adobe Illustrator 19.0.0, SVG Export Plug-In . SVG Version: 6.00 Build 0)  -->
<svg version="1.1" id="Capa_1" xmlns="http://www.w3.org/2000/svg" xmlns:xlink="http://www.w3.org/1999/xlink" x="0px" y="0px"
	 viewBox="0 0 512 512" style="enable-background:new 0 0 512 512;" xml:space="preserve">
<g>
	<g>
		<path d="M448.8,0h-337.4c-34.848,0-63.2,28.351-63.2,63.199V448.8c0,34.849,28.352,63.2,63.199,63.2h337.4c8.284,0,15-6.716,15-15
			v-96.4V15C463.8,6.716,457.085,0,448.8,0z M145.334,176.802c1.765-5.43,6.458-9.388,12.108-10.208l58.811-8.544l26.296-53.288
			c2.526-5.12,7.741-8.362,13.45-8.362c5.711,0,10.926,3.241,13.452,8.361l26.299,53.289l58.806,8.544
			c5.65,0.82,10.345,4.778,12.109,10.208c1.765,5.43,0.293,11.391-3.795,15.376l-42.55,41.481l9.905,57.753
			c0.246,1.078,0.375,2.2,0.375,3.352c0,8.276-6.703,14.987-14.977,15c-0.014,0-0.029,0-0.045,0c-2.387,0-4.783-0.569-6.978-1.723
			L256,280.386l-52.599,27.654c-2.195,1.154-4.592,1.724-6.979,1.724c-3.111,0-6.205-0.966-8.818-2.865
			c-4.619-3.354-6.934-9.044-5.968-14.671l10.048-58.568l-42.555-41.48C145.042,188.193,143.57,182.232,145.334,176.802z M433.8,482
			h-322.4c-18.307,0-33.2-14.894-33.2-33.2c0-0.631,0.021-1.258,0.057-1.881c0.979-17.436,15.469-31.319,33.143-31.319h217.4h105
			V482z"/>
	</g>
</g>
<g>
</g>
<g>
</g>
<g>
</g>
<g>
</g>
<g>
</g>
<g>
</g>
<g>
</g>
<g>
</g>
<g>
</g>
<g>
</g>
<g>
</g>
<g>
</g>
<g>
</g>
<g>
</g>
<g>
</g>
</svg>
