<?xml version="1.0" encoding="iso-8859-1"?>
<!-- Generator: Adobe Illustrator 19.0.0, SVG Export Plug-In . SVG Version: 6.00 Build 0)  -->
<svg version="1.1" id="Capa_1" xmlns="http://www.w3.org/2000/svg" xmlns:xlink="http://www.w3.org/1999/xlink" x="0px" y="0px"
	 viewBox="0 0 512 512" style="enable-background:new 0 0 512 512;" xml:space="preserve">
<g>
	<g>
		<path d="M448.8,0h-337.4c-34.849,0-63.2,28.351-63.2,63.199V448.8c0,34.849,28.351,63.2,63.199,63.2h337.4c8.284,0,15-6.716,15-15
			v-96.4V15C463.8,6.716,457.085,0,448.8,0z M78.201,63.199C78.201,44.894,93.094,30,111.399,30h322.4v355.6H111.4
			c-12.171,0-23.544,3.468-33.199,9.453V63.199z M111.401,482c-18.307,0-33.2-14.894-33.2-33.2c0-18.306,14.893-33.2,33.199-33.2
			h322.4V482H111.401z"/>
	</g>
</g>
<g>
	<g>
		<path d="M366.667,176.802c-1.765-5.43-6.459-9.388-12.109-10.208l-58.806-8.544l-26.299-53.289
			c-2.527-5.12-7.741-8.361-13.452-8.361c-5.709,0-10.924,3.242-13.451,8.362l-26.296,53.288l-58.809,8.544
			c-5.65,0.82-10.345,4.778-12.109,10.208c-1.765,5.431-0.293,11.392,3.795,15.377l42.555,41.48l-10.048,58.568
			c-0.965,5.627,1.348,11.315,5.967,14.671c2.613,1.9,5.708,2.865,8.818,2.865c2.388,0,4.784-0.569,6.979-1.724L256,280.386
			l52.601,27.655c2.21,1.16,4.595,1.717,7.024,1.723c8.273-0.013,14.977-6.724,14.977-15c0-1.151-0.131-2.273-0.376-3.352
			l-9.905-57.753l42.55-41.481C366.959,188.193,368.431,182.232,366.667,176.802z M293.732,217.684
			c-3.535,3.445-5.147,8.41-4.314,13.275l6.24,36.385l-32.679-17.181c-2.186-1.148-4.583-1.723-6.98-1.723
			c-2.398,0-4.795,0.574-6.981,1.724l-32.675,17.179l6.242-36.383c0.835-4.866-0.778-9.831-4.314-13.277l-26.438-25.77l36.539-5.309
			c4.886-0.709,9.11-3.778,11.294-8.206L256,145.295l16.337,33.104c2.185,4.427,6.408,7.496,11.295,8.205l36.534,5.309
			L293.732,217.684z"/>
	</g>
</g>
<g>
</g>
<g>
</g>
<g>
</g>
<g>
</g>
<g>
</g>
<g>
</g>
<g>
</g>
<g>
</g>
<g>
</g>
<g>
</g>
<g>
</g>
<g>
</g>
<g>
</g>
<g>
</g>
<g>
</g>
</svg>
