<?xml version="1.0" encoding="iso-8859-1"?>
<!-- Generator: Adobe Illustrator 19.0.0, SVG Export Plug-In . SVG Version: 6.00 Build 0)  -->
<svg version="1.1" id="Capa_1" xmlns="http://www.w3.org/2000/svg" xmlns:xlink="http://www.w3.org/1999/xlink" x="0px" y="0px"
	 viewBox="0 0 512 512" style="enable-background:new 0 0 512 512;" xml:space="preserve">
<linearGradient id="SVGID_1_" gradientUnits="userSpaceOnUse" x1="26.5698" y1="258" x2="485.4302" y2="258" gradientTransform="matrix(1 0 0 -1 0 514)">
	<stop  offset="0" style="stop-color:#00F2FE"/>
	<stop  offset="0.021" style="stop-color:#03EFFE"/>
	<stop  offset="0.293" style="stop-color:#24D2FE"/>
	<stop  offset="0.554" style="stop-color:#3CBDFE"/>
	<stop  offset="0.796" style="stop-color:#4AB0FE"/>
	<stop  offset="1" style="stop-color:#4FACFE"/>
</linearGradient>
<path style="fill:url(#SVGID_1_);" d="M193.459,492c0,11.046-8.954,20-20,20H106.57c-44.112,0-80-35.888-80-80V80
	c0-44.112,35.888-80,80-80h245.889c44.112,0,80,35.888,80,80v123c0,11.046-8.954,20-20,20s-20-8.954-20-20V80
	c0-22.056-17.944-40-40-40H106.57c-22.056,0-40,17.944-40,40v352c0,22.056,17.944,40,40,40h66.889
	C184.505,472,193.459,480.954,193.459,492z M332.459,120h-206c-11.046,0-20,8.954-20,20s8.954,20,20,20h206c11.046,0,20-8.954,20-20
	S343.505,120,332.459,120z M352.459,220c0-11.046-8.954-20-20-20h-206c-11.046,0-20,8.954-20,20s8.954,20,20,20h206
	C343.505,240,352.459,231.046,352.459,220z M126.459,280c-11.046,0-20,8.954-20,20s8.954,20,20,20H251.57c11.046,0,20-8.954,20-20
	s-8.954-20-20-20H126.459z M467.885,374.426L358.312,483.793c-2.44,2.436-5.468,4.199-8.79,5.119l-80.725,22.361
	c-1.763,0.489-3.559,0.727-5.338,0.727c-5.317,0-10.501-2.123-14.317-6.034c-5.094-5.221-6.941-12.8-4.821-19.78l23.913-78.725
	c0.958-3.152,2.678-6.018,5.01-8.345l109.803-109.56c23.379-23.379,61.443-23.378,84.837,0.016
	C491.279,312.968,491.279,351.032,467.885,374.426z M407.428,378.254l-28.29-28.29l-74.089,73.925l-11.885,39.129l40.612-11.25
	L407.428,378.254z M439.601,317.858c-7.798-7.798-20.486-7.798-28.284,0l-3.862,3.854l28.285,28.285l3.875-3.867
	C447.399,338.344,447.399,325.656,439.601,317.858z"/>
<g>
</g>
<g>
</g>
<g>
</g>
<g>
</g>
<g>
</g>
<g>
</g>
<g>
</g>
<g>
</g>
<g>
</g>
<g>
</g>
<g>
</g>
<g>
</g>
<g>
</g>
<g>
</g>
<g>
</g>
</svg>
